<?xml version="1.0" standalone="no"?>
<!DOCTYPE svg PUBLIC "-//W3C//DTD SVG 1.1//EN" "http://www.w3.org/Graphics/SVG/1.1/DTD/svg11.dtd" >
<svg xmlns="http://www.w3.org/2000/svg">
<metadata>Generated by IcoMoon</metadata>
<defs>
<font id="icomoon" horiz-adv-x="1024">
<font-face units-per-em="1024" ascent="960" descent="-64" />
<missing-glyph horiz-adv-x="1024" />
<glyph unicode="&#x20;" horiz-adv-x="512" d="" />
<glyph unicode="&#xe900;" glyph-name="add" d="M504.32 873.984l7.68 0.683c9.988 0.003 19.657-3.496 27.328-9.889s12.86-15.274 14.656-25.097l0.683-7.68v-341.333h341.333c9.988 0.004 19.657-3.494 27.328-9.89 7.671-6.391 12.86-15.275 14.656-25.097l0.683-7.68c0.004-9.988-3.494-19.657-9.89-27.328-6.391-7.671-15.275-12.86-25.097-14.656l-7.68-0.683h-341.333v-341.333c0.004-9.988-3.494-19.657-9.89-27.328-6.391-7.671-15.275-12.86-25.097-14.656l-7.68-0.683c-9.988-0.004-19.657 3.494-27.328 9.89-7.671 6.391-12.86 15.275-14.656 25.097l-0.683 7.68v341.333h-341.333c-9.986-0.004-19.657 3.494-27.329 9.89-7.671 6.391-12.858 15.275-14.655 25.097l-0.683 7.68c-0.003 9.988 3.496 19.657 9.889 27.328s15.274 12.86 25.097 14.656l7.68 0.683h341.333v341.333c-0.004 9.986 3.494 19.657 9.89 27.329 6.391 7.671 15.275 12.858 25.097 14.655v0z" />
<glyph unicode="&#xe901;" glyph-name="alert" d="M464.956 812.903l-364.625-654.077c-30.336-55.275-17.451-105.493 64.533-105.493h694.226c82.219 0 94.869 50.219 64.533 105.493l-372.16 653.671c-7.552 14.741-18.517 30.378-41.749 30.165-24.747-0.448-37.013-14.997-44.757-29.76zM469.329 607.998h85.333v-298.665h-85.333v298.665zM469.329 245.333h85.333v-85.333h-85.333v85.333z" />
<glyph unicode="&#xe902;" glyph-name="archive" d="M213.333 746.667c-11.316 0-22.168-4.495-30.17-12.497s-12.497-18.854-12.497-30.17c0-11.316 4.495-22.168 12.497-30.17s18.854-12.497 30.17-12.497h597.333c11.315 0 22.17 4.495 30.17 12.497s12.497 18.854 12.497 30.17c0 11.316-4.497 22.168-12.497 30.17s-18.854 12.497-30.17 12.497h-597.333zM122.824 794.51c24.005 24.005 56.562 37.49 90.51 37.49h597.333c33.95 0 66.505-13.486 90.509-37.49s37.491-56.562 37.491-90.51c0-33.948-13.487-66.505-37.491-90.51-13.628-13.628-30.012-23.866-47.842-30.17v-391.32c0-33.95-13.487-66.505-37.491-90.509s-56.559-37.491-90.509-37.491h-426.667c-33.948 0-66.505 13.487-90.51 37.491s-37.49 56.563-37.49 90.509v391.32c-17.83 6.304-34.215 16.542-47.843 30.17-24.005 24.005-37.49 56.562-37.49 90.51s13.486 66.505 37.49 90.51zM256 576v-384c0-11.315 4.495-22.17 12.497-30.17s18.854-12.497 30.17-12.497h426.667c11.315 0 22.17 4.497 30.17 12.497s12.497 18.854 12.497 30.17v384h-512zM384 448c0 23.565 19.103 42.667 42.667 42.667h170.667c23.565 0 42.667-19.102 42.667-42.667s-19.102-42.667-42.667-42.667h-170.667c-23.564 0-42.667 19.102-42.667 42.667z" />
<glyph unicode="&#xe903;" glyph-name="arrow-left" d="M456.836 776.837c16.661-16.663 16.661-43.677 0-60.34l-225.83-225.83h664.994c23.565 0 42.667-19.102 42.667-42.667s-19.102-42.667-42.667-42.667h-664.994l225.83-225.83c16.661-16.661 16.661-43.678 0-60.339s-43.677-16.661-60.34 0l-298.667 298.667c-16.662 16.661-16.662 43.678 0 60.339l298.667 298.667c16.663 16.662 43.678 16.662 60.34 0z" />
<glyph unicode="&#xe904;" glyph-name="arrow-right" d="M567.164 776.837c16.661 16.662 43.678 16.662 60.339 0l298.667-298.667c16.661-16.661 16.661-43.678 0-60.339l-298.667-298.667c-16.661-16.661-43.678-16.661-60.339 0s-16.661 43.678 0 60.339l225.83 225.83h-664.994c-23.564 0-42.667 19.102-42.667 42.667s19.103 42.667 42.667 42.667h664.994l-225.83 225.83c-16.661 16.663-16.661 43.677 0 60.34z" />
<glyph unicode="&#xe905;" glyph-name="attach" d="M667.153 680.727v-446.061c0-41.148-16.35-80.61-45.444-109.709-29.099-29.094-68.561-45.444-109.709-45.444s-80.61 16.35-109.709 45.444c-29.097 29.099-45.443 68.561-45.443 109.709v484.849c0 25.718 10.216 50.383 28.401 68.568s42.85 28.401 68.57 28.401c25.715 0 50.381-10.216 68.565-28.401s28.403-42.85 28.403-68.568v-407.272c0-10.287-4.087-20.156-11.362-27.426-7.275-7.275-17.139-11.362-27.426-11.362s-20.151 4.087-27.426 11.362c-7.275 7.27-11.362 17.139-11.362 27.426v368.484h-58.182v-368.484c0-25.719 10.217-50.385 28.4-68.57 18.189-18.185 42.85-28.399 68.57-28.399s50.381 10.214 68.57 28.399c18.185 18.185 28.399 42.85 28.399 68.57v407.272c0 41.149-16.346 80.612-45.44 109.708-29.099 29.097-68.561 45.443-109.709 45.443-41.15 0-80.614-16.346-109.71-45.443s-45.443-68.56-45.443-109.708v-484.849c0-56.58 22.476-110.844 62.484-150.848 40.008-40.009 94.269-62.485 150.849-62.485s110.844 22.477 150.848 62.485c40.009 40.004 62.485 94.268 62.485 150.848v446.061h-58.18z" />
<glyph unicode="&#xe906;" glyph-name="attachment" d="M292.762 392.265l333.554 333.552c3.571 3.574 32.162 32.164 77.431 47.651 63.134 20.251 127.462 3.574 178.688-47.651 52.416-51.224 67.904-114.361 47.65-177.498-14.293-45.27-44.075-76.241-47.65-79.813l-358.571-358.571c-61.943-61.948-216.808-141.76-359.759 0-141.76 141.76-60.754 297.813 0 358.571l384.779 385.967c14.293 14.295 36.928 14.295 51.221 0 14.298-14.295 14.298-36.929 0-51.224l-383.585-385.968c-5.956-4.766-126.274-129.847 0-256.124 122.7-122.697 243.015-13.103 256.122 0l358.566 359.761c0 0 20.254 20.253 29.781 48.844 11.913 38.121 3.575 71.476-29.781 104.831-71.475 71.476-140.565 11.913-153.673 0l-333.551-332.363c-11.913-11.913-20.252-32.162 0-52.416 20.251-20.25 39.311-10.722 51.224 0l231.106 231.104c14.293 13.106 38.118 13.106 51.221 0 14.298-14.293 14.298-38.118 0-52.412l-231.104-229.914c-32.163-30.976-97.682-55.991-153.672 0-57.181 55.987-32.164 122.697 0 153.673z" />
<glyph unicode="&#xe907;" glyph-name="building" d="M204.799 755.2v-614.4c-13.579 0-26.602-5.393-36.204-14.997-9.602-9.6-14.996-22.622-14.996-36.203s5.394-26.603 14.996-36.203c9.602-9.604 22.625-14.997 36.204-14.997h153.6c13.579 0 26.602 5.393 36.204 14.997 9.602 9.6 14.996 22.622 14.996 36.203v102.4c0 13.581 5.394 26.603 14.996 36.203 9.602 9.604 22.624 14.997 36.205 14.997h102.4c13.577 0 26.603-5.393 36.203-14.997 9.6-9.6 14.997-22.622 14.997-36.203v-102.4c0-13.581 5.393-26.603 14.993-36.203 9.604-9.604 22.626-14.997 36.207-14.997h153.6c13.577 0 26.603 5.393 36.203 14.997 9.6 9.6 14.997 22.622 14.997 36.203s-5.397 26.603-14.997 36.203c-9.6 9.604-22.626 14.997-36.203 14.997v614.4c0 27.158-10.79 53.204-29.995 72.408s-45.248 29.992-72.405 29.992h-409.601c-27.158 0-53.204-10.789-72.408-29.992s-29.992-45.25-29.992-72.408zM358.399 704h102.401v-102.4h-102.401v102.4zM460.8 499.2v-102.4h-102.401v102.4h102.401zM563.2 704h102.4v-102.4h-102.4v102.4zM665.6 499.2v-102.4h-102.4v102.4h102.4z" />
<glyph unicode="&#xe908;" glyph-name="calendar" d="M341.333 789.333h341.333v85.333h85.333v-85.333h42.667c22.63 0 44.335-8.99 60.339-24.994s24.994-37.708 24.994-60.34v-597.333c0-22.63-8.99-44.335-24.994-60.339s-37.709-24.994-60.339-24.994h-597.333c-22.632 0-44.337 8.99-60.34 24.994s-24.994 37.709-24.994 60.339v597.333c0 22.632 8.99 44.337 24.994 60.34s37.708 24.994 60.34 24.994h42.667v85.333h85.333v-85.333zM213.333 618.667v-512h597.333v512h-597.333zM298.667 490.667h85.333v-85.333h-85.333v85.333zM469.333 490.667h85.333v-85.333h-85.333v85.333zM640 490.667h85.333v-85.333h-85.333v85.333zM640 320h85.333v-85.333h-85.333v85.333zM469.333 320h85.333v-85.333h-85.333v85.333zM298.667 320h85.333v-85.333h-85.333v85.333z" />
<glyph unicode="&#xe909;" glyph-name="check" d="M353.301 248.772l-185.214 185.216c-9.21 8.896-21.545 13.815-34.348 13.705s-25.050-5.248-34.104-14.302c-9.054-9.054-14.189-21.299-14.301-34.103-0.111-12.8 4.811-25.135 13.705-34.347l219.737-219.738c9.157-9.152 21.575-14.298 34.523-14.298s25.366 5.146 34.523 14.298l537.134 537.136c8.896 9.21 13.82 21.544 13.709 34.347-0.115 12.803-5.248 25.051-14.302 34.104s-21.299 14.189-34.103 14.3c-12.804 0.111-25.139-4.811-34.347-13.705l-502.614-502.613z" />
<glyph unicode="&#xe90a;" glyph-name="chevron-contract" d="M202.439 31.778c3.302-3.311 7.226-5.939 11.544-7.731s8.949-2.714 13.626-2.714c4.676 0 9.306 0.922 13.625 2.714s8.242 4.42 11.544 7.731l259.23 259.302 259.234-259.302c6.677-6.677 15.731-10.428 25.169-10.428 9.442 0 18.496 3.75 25.169 10.428 6.677 6.673 10.428 15.727 10.428 25.169s-3.75 18.496-10.428 25.169l-284.399 284.403c-3.302 3.311-7.228 5.935-11.546 7.727s-8.951 2.718-13.628 2.718c-4.672 0-9.306-0.926-13.623-2.718s-8.243-4.416-11.546-7.727l-284.401-284.403c-3.311-3.302-5.937-7.223-7.729-11.546-1.792-4.318-2.714-8.947-2.714-13.623s0.922-9.306 2.714-13.623c1.792-4.322 4.419-8.243 7.729-11.546zM202.439 864.222c3.302 3.311 7.226 5.937 11.544 7.729s8.949 2.715 13.626 2.715c4.676 0 9.306-0.922 13.625-2.715s8.242-4.419 11.544-7.729l259.23-259.304 259.234 259.304c6.677 6.676 15.731 10.426 25.169 10.426 9.442 0 18.496-3.75 25.169-10.426 6.677-6.675 10.428-15.729 10.428-25.169s-3.75-18.494-10.428-25.169l-284.399-284.403c-3.302-3.311-7.228-5.935-11.546-7.727-4.318-1.796-8.951-2.718-13.628-2.718-4.672 0-9.306 0.922-13.623 2.718-4.318 1.792-8.243 4.416-11.546 7.727l-284.401 284.403c-3.311 3.302-5.937 7.225-7.729 11.544s-2.714 8.949-2.714 13.625c0 4.676 0.922 9.306 2.714 13.625s4.419 8.242 7.729 11.544z" />
<glyph unicode="&#xe90b;" glyph-name="chevron-down" d="M512 204.8l-426.667 426.666 59.733 59.733 366.933-366.933 366.933 366.933 59.733-59.733-426.667-426.666z" />
<glyph unicode="&#xe90c;" glyph-name="chevron-expand" d="M202.439 366.519c3.302 3.311 7.226 5.935 11.544 7.727s8.949 2.718 13.626 2.718c4.676 0 9.306-0.926 13.625-2.718s8.242-4.416 11.544-7.727l259.23-259.302 259.234 259.302c6.677 6.673 15.731 10.423 25.169 10.423 9.442 0 18.496-3.75 25.169-10.423 6.677-6.677 10.428-15.731 10.428-25.169 0-9.442-3.75-18.496-10.428-25.169l-284.399-284.403c-3.302-3.311-7.228-5.939-11.546-7.731s-8.951-2.714-13.628-2.714c-4.672 0-9.306 0.922-13.623 2.714s-8.243 4.42-11.546 7.731l-284.401 284.403c-3.311 3.302-5.937 7.223-7.729 11.541-1.792 4.322-2.714 8.951-2.714 13.628s0.922 9.306 2.714 13.623c1.792 4.318 4.419 8.243 7.729 11.546zM202.439 529.481c3.302-3.311 7.226-5.935 11.544-7.727 4.319-1.796 8.949-2.718 13.626-2.718s9.306 0.922 13.625 2.718c4.319 1.792 8.242 4.416 11.544 7.727l259.23 259.304 259.234-259.304c6.677-6.673 15.731-10.423 25.169-10.423 9.442 0 18.496 3.75 25.169 10.423 6.677 6.676 10.428 15.73 10.428 25.17s-3.75 18.494-10.428 25.169l-284.399 284.402c-3.302 3.311-7.228 5.937-11.546 7.729s-8.951 2.715-13.628 2.715c-4.672 0-9.306-0.922-13.623-2.715s-8.243-4.419-11.546-7.729l-284.401-284.402c-3.311-3.302-5.937-7.226-7.729-11.544s-2.714-8.949-2.714-13.625c0-4.676 0.922-9.306 2.714-13.626s4.419-8.242 7.729-11.545z" />
<glyph unicode="&#xe90d;" glyph-name="chevron-left" d="M268.8 448l426.667 426.667 59.733-59.733-366.934-366.933 366.934-366.933-59.733-59.733-426.667 426.667z" />
<glyph unicode="&#xe90e;" glyph-name="chevron-right" d="M755.2 448l-426.667-426.667-59.733 59.733 366.934 366.933-366.934 366.933 59.733 59.733 426.667-426.667z" />
<glyph unicode="&#xe90f;" glyph-name="chevron-up" d="M512 691.2l426.667-426.667-59.733-59.733-366.933 366.933-366.933-366.933-59.733 59.733 426.667 426.667z" />
<glyph unicode="&#xe910;" glyph-name="clarity_pop-out-line" d="M768 21.333h-625.778c-15.088 0-29.558 5.996-40.227 16.663s-16.662 25.139-16.662 40.226v625.778c0 15.088 5.994 29.558 16.662 40.227s25.139 16.662 40.227 16.662h284.444v-56.889h-284.444v-625.778h625.778v284.444h56.889v-284.444c0-15.087-5.996-29.559-16.663-40.226s-25.139-16.663-40.226-16.663zM511.998 874.667c-7.544 0-14.779-2.997-20.113-8.331s-8.331-12.569-8.331-20.113c0-7.544 2.997-14.779 8.331-20.113s12.569-8.331 20.113-8.331h329.673l-393.958-393.956c-2.978-2.55-5.396-5.688-7.103-9.217s-2.667-7.372-2.818-11.29c-0.151-3.917 0.509-7.824 1.939-11.474 1.43-3.649 3.599-6.965 6.372-9.736 2.772-2.776 6.087-4.944 9.737-6.372 3.65-1.434 7.557-2.094 11.474-1.94s7.761 1.109 11.29 2.816c3.529 1.707 6.667 4.13 9.217 7.105l393.958 393.956v-329.671c0-7.544 2.992-14.779 8.329-20.113s12.572-8.331 20.116-8.331c7.543 0 14.774 2.997 20.11 8.331s8.334 12.569 8.334 20.113v426.667h-426.669z" />
<glyph unicode="&#xe911;" glyph-name="clock" d="M892.83 828.743c-26.441 26.135-61.201 42.179-98.24 45.346-37.043 3.166-74.022-6.746-104.516-28.014 98.018-40.808 178.086-115.506 225.591-210.457 18.334 30.109 26.052 65.495 21.909 100.503-4.139 35.008-19.891 67.62-44.745 92.622zM341.239 840.022c-30.365 24.116-68.508 36.284-107.229 34.206s-75.343-18.257-102.953-45.485c-27.382-27.563-43.599-64.282-45.529-103.087s10.563-76.951 35.075-107.095c44.142 98.213 122.589 176.953 220.636 221.461zM478.242 821.865c-71.827-8.39-139.84-36.833-196.258-82.074s-98.958-105.449-122.754-173.737c-23.796-68.288-27.886-141.896-11.802-212.403 16.084-70.502 51.692-135.053 102.75-186.266l-70.153-70.153c-2.547-2.603-4.557-5.679-5.914-9.058-1.358-3.375-2.036-6.989-1.999-10.628s0.794-7.236 2.222-10.586c1.428-3.349 3.503-6.383 6.103-8.93s5.679-4.557 9.056-5.914c3.378-1.361 6.99-2.039 10.63-2.001s7.238 0.794 10.586 2.223c3.348 1.429 6.383 3.503 8.93 6.106l73.178 73.178c66.921-50.641 148.643-77.862 232.564-77.466 83.921 0.401 165.38 28.395 231.817 79.667l75.379-75.379c5.265-4.51 12.032-6.865 18.957-6.596s13.491 3.136 18.389 8.038c4.902 4.898 7.77 11.465 8.038 18.389s-2.086 13.696-6.592 18.957l-74.005 72.905c55.535 56.883 92.105 129.562 104.691 208.060 12.587 78.494 0.576 158.963-34.385 230.362-34.957 71.399-91.157 130.23-160.883 168.421s-149.559 53.87-228.548 44.885zM565.726 111.812c-68.373-8.956-137.839 3.729-198.639 36.267s-109.885 83.298-140.365 145.156c-30.479 61.854-40.823 131.708-29.578 199.744 11.244 68.035 43.512 130.842 92.274 179.604s111.569 81.030 179.604 92.274c68.036 11.244 137.89 0.901 199.744-29.578 61.858-30.479 112.619-79.564 145.156-140.365s45.222-130.265 36.267-198.639c-9.451-72.132-42.458-139.123-93.897-190.566-51.443-51.439-118.434-84.446-190.566-93.897zM712.636 374.818l-166.716 82.53v215.684c0 6.567-2.611 12.864-7.253 17.508s-10.94 7.252-17.506 7.252c-6.566 0-12.864-2.609-17.51-7.252-4.642-4.643-7.249-10.941-7.249-17.508v-247.594l194.223-96.29c5.914-2.88 12.723-3.298 18.94-1.156s11.332 6.665 14.212 12.574c2.884 5.909 3.298 12.723 1.156 18.94s-6.665 11.328-12.574 14.212l0.277 1.101z" />
<glyph unicode="&#xe912;" glyph-name="close" d="M807.787 754.647l5.914-4.948c7.061-7.059 11.426-16.372 12.331-26.317s-1.711-19.892-7.386-28.109l-4.945-5.914-241.361-241.359 241.361-241.361c7.061-7.057 11.426-16.371 12.331-26.317s-1.711-19.891-7.386-28.109l-4.945-5.914c-7.061-7.061-16.375-11.426-26.317-12.331-9.946-0.905-19.895 1.711-28.113 7.386l-5.909 4.945-241.361 241.361-241.359-241.361c-7.059-7.061-16.372-11.426-26.317-12.331s-19.892 1.711-28.109 7.386l-5.914 4.945c-7.063 7.061-11.427 16.375-12.332 26.317-0.904 9.946 1.709 19.895 7.384 28.113l4.948 5.909 241.36 241.361-241.36 241.359c-7.063 7.059-11.427 16.372-12.332 26.317s1.709 19.892 7.384 28.109l4.948 5.914c7.059 7.063 16.372 11.427 26.317 12.332s19.892-1.709 28.109-7.384l5.914-4.948 241.359-241.36 241.361 241.36c7.057 7.063 16.371 11.427 26.317 12.332s19.891-1.709 28.109-7.384v0z" />
<glyph unicode="&#xe913;" glyph-name="code" d="M938.667 448l-199.113-238.933-40.107 48.128 158.72 190.805-158.72 190.805 40.107 48.128 199.113-238.933zM85.333 448l199.111 238.933 40.107-48.128-158.72-190.805 158.72-190.805-40.107-48.128-199.111 238.933zM410.14 124.279l148.482 665.054 54.955-17.681-148.51-664.986-54.927 17.613z" />
<glyph unicode="&#xe914;" glyph-name="create-doc" d="M853.333 704h-341.333l-85.333 85.333h-256c-47.36 0-84.907-37.973-84.907-85.333l-0.427-512c0-47.36 37.973-85.333 85.333-85.333h682.667c47.36 0 85.333 37.973 85.333 85.333v426.667c0 47.36-37.973 85.333-85.333 85.333zM853.333 192h-682.667v512h220.587l85.333-85.333h376.747v-426.667zM512 362.667h85.333v-85.333h85.333v85.333h85.333v85.333h-85.333v85.333h-85.333v-85.333h-85.333v-85.333z" />
<glyph unicode="&#xe915;" glyph-name="dashboard" d="M512 789.333c-81.34 0.090-161.009-22.181-229.596-64.182s-123.228-101.978-157.469-172.847c-34.241-70.871-46.653-149.672-35.769-227.095 10.884-77.427 44.609-150.246 97.191-209.856l7.753-8.687h635.777l7.753 8.687c52.587 59.61 86.31 132.429 97.195 209.856 10.884 77.423-1.527 156.224-35.772 227.095-34.24 70.869-88.879 130.845-157.47 172.847-68.587 42.001-148.254 64.272-229.594 64.182zM734.263 553.999l-152.998-144.229c7.817-15.881 9.545-33.903 4.868-50.884-4.676-16.986-15.454-31.834-30.426-41.924-14.967-10.086-33.173-14.771-51.388-13.218-18.219 1.553-35.277 9.242-48.162 21.709s-20.77 28.902-22.259 46.413c-1.489 17.506 3.516 34.957 14.123 49.267 10.611 14.306 26.146 24.55 43.861 28.924 17.711 4.373 36.463 2.59 52.941-5.035l152.742 144.228 36.698-35.25zM139.837 400.832h87.872v-49.647h-88.906c0 9.681-1.292 19.115-1.292 29.043 0 9.933 0.517 13.653 1.034 20.604h1.292zM265.959 649.076l63.578-61.068-37.992-34.257-63.836 60.82c11.457 12.555 23.806 24.334 36.958 35.25l1.292-0.745zM537.843 651.807h-51.686v86.885h25.843c9.562 0 18.091 0 25.843-1.242v-85.644zM886.49 379.981c0-9.681 0-19.61-1.293-29.043h-90.974v49.647h91.234c0.516-6.703 1.033-13.653 1.033-20.604z" />
<glyph unicode="&#xe916;" glyph-name="delete" d="M298.667 789.333c0 22.632 8.99 44.337 24.994 60.34s37.708 24.994 60.34 24.994h256c22.63 0 44.335-8.99 60.339-24.994s24.994-37.708 24.994-60.34v-85.333h170.667c11.315 0 22.17-4.495 30.17-12.497s12.497-18.854 12.497-30.17c0-11.316-4.497-22.168-12.497-30.17s-18.854-12.497-30.17-12.497h-45.611l-36.992-518.059c-1.532-21.53-11.166-41.677-26.961-56.388-15.795-14.707-36.574-22.886-58.159-22.886h-432.597c-21.583 0-42.365 8.179-58.16 22.886-15.794 14.711-25.428 34.859-26.96 56.388l-36.907 518.059h-45.653c-11.316 0-22.168 4.495-30.17 12.497s-12.497 18.854-12.497 30.17c0 11.316 4.495 22.168 12.497 30.17s18.854 12.497 30.17 12.497h170.667v85.333zM384 704h256v85.333h-256v-85.333zM259.157 618.667l36.565-512h432.597l36.565 512h-505.728zM426.667 533.333c11.315 0 22.17-4.497 30.17-12.497s12.497-18.854 12.497-30.17v-256c0-11.315-4.497-22.17-12.497-30.17s-18.854-12.497-30.17-12.497c-11.316 0-22.168 4.497-30.17 12.497s-12.497 18.854-12.497 30.17v256c0 11.315 4.495 22.17 12.497 30.17s18.854 12.497 30.17 12.497zM597.333 533.333c11.315 0 22.17-4.497 30.17-12.497s12.497-18.854 12.497-30.17v-256c0-11.315-4.497-22.17-12.497-30.17s-18.854-12.497-30.17-12.497c-11.315 0-22.17 4.497-30.17 12.497s-12.497 18.854-12.497 30.17v256c0 11.315 4.497 22.17 12.497 30.17s18.854 12.497 30.17 12.497z" />
<glyph unicode="&#xe917;" glyph-name="description" d="M128 234.667h512c10.876-0.013 21.333-4.177 29.244-11.639 7.906-7.467 12.663-17.673 13.303-28.527 0.636-10.854-2.897-21.547-9.877-29.884-6.98-8.341-16.879-13.7-27.678-14.985l-4.992-0.299h-512c-10.875 0.013-21.335 4.177-29.242 11.639-7.907 7.467-12.666 17.673-13.303 28.527s2.895 21.547 9.875 29.884c6.98 8.341 16.88 13.7 27.679 14.985l4.992 0.299zM128 405.333h768c10.876-0.013 21.333-4.177 29.244-11.639 7.906-7.467 12.663-17.673 13.303-28.527 0.636-10.854-2.897-21.547-9.877-29.884-6.98-8.341-16.879-13.7-27.678-14.985l-4.992-0.299h-768c-10.875 0.013-21.335 4.177-29.242 11.639-7.907 7.467-12.666 17.673-13.303 28.527s2.895 21.547 9.875 29.884c6.98 8.341 16.88 13.7 27.679 14.985l4.992 0.299zM128 576h768c10.876-0.012 21.333-4.176 29.244-11.642 7.906-7.465 12.663-17.668 13.303-28.524 0.636-10.855-2.897-21.547-9.877-29.884-6.98-8.341-16.879-13.7-27.678-14.985l-4.992-0.299h-768c-10.875 0.013-21.335 4.177-29.242 11.639-7.907 7.467-12.666 17.673-13.303 28.527-0.637 10.856 2.895 21.546 9.875 29.885s16.88 13.699 27.679 14.983l4.992 0.299zM128 746.667h768c10.876-0.012 21.333-4.176 29.244-11.642 7.906-7.465 12.663-17.668 13.303-28.524 0.636-10.857-2.897-21.546-9.877-29.885s-16.879-13.699-27.678-14.983l-4.992-0.299h-768c-10.875 0.012-21.335 4.176-29.242 11.642s-12.666 17.668-13.303 28.524c-0.637 10.857 2.895 21.546 9.875 29.885s16.88 13.699 27.679 14.983l4.992 0.299z" />
<glyph unicode="&#xe918;" glyph-name="download" d="M725.299 575.872h-127.996v256.128h-170.66v-256.128h-127.996l213.327-213.44 213.325 213.44zM910.383 297.033c-8.96 9.562-68.736 73.553-85.803 90.244-11.959 11.469-27.891 17.865-44.454 17.843h-74.965l130.726-127.808h-151.206c-2.052 0.038-4.083-0.469-5.879-1.463-1.796-0.998-3.302-2.449-4.356-4.215l-34.816-79.953h-255.309l-34.815 79.953c-1.064 1.758-2.569 3.209-4.365 4.203-1.796 0.998-3.821 1.506-5.875 1.476h-151.206l130.684 127.808h-74.92c-16.938 0-33.108-6.788-44.457-17.843-17.066-16.734-76.84-80.725-85.8-90.244-20.863-22.238-32.34-39.953-26.879-61.854l23.935-131.221c5.461-21.943 29.481-39.957 53.417-39.957h695.954c23.936 0 47.957 18.014 53.419 39.957l23.932 131.221c5.376 21.901-6.059 39.616-26.961 61.854z" />
<glyph unicode="&#xe919;" glyph-name="draft" d="M844.22 660.762l-208.678 204.952c-5.82 5.714-13.675 8.952-21.918 8.952h-411.927c-17.164 0-31.030-13.619-31.030-30.476v-792.38c0-16.858 13.867-30.477 31.030-30.477h620.605c17.165 0 31.031 13.619 31.031 30.477v587.333c0 8.095-3.298 15.905-9.114 21.619zM781.769 625.143h-182.494v179.238l182.494-179.238zM783.514 89.903h-543.029v716.192h292.849v-205.714c0-10.609 4.292-20.783 11.93-28.284s17.997-11.716 28.796-11.716h209.455v-470.478zM543.031 486.097c0 4.19-3.49 7.616-7.757 7.616h-46.549c-4.267 0-7.757-3.426-7.757-7.616v-102.861h-104.726c-4.267 0-7.758-3.426-7.758-7.616v-45.717c0-4.19 3.491-7.616 7.758-7.616h104.726v-102.857c0-4.194 3.49-7.62 7.757-7.62h46.549c4.267 0 7.757 3.426 7.757 7.62v102.857h104.725c4.267 0 7.757 3.426 7.757 7.616v45.717c0 4.19-3.49 7.616-7.757 7.616h-104.725v102.861z" />
<glyph unicode="&#xe91a;" glyph-name="drop" d="M170.667 618.667l341.333-341.333 341.333 341.333h-682.667z" />
<glyph unicode="&#xe91b;" glyph-name="edit" d="M731.383 874.665c9.775 0.055 19.469-1.826 28.514-5.536 9.050-3.709 17.271-9.174 24.196-16.077l0.038-0.040 132.881-132.879c29.167-29.169 28.527-76.136-0.299-104.963l-498.819-498.819-332.562-95.019 95.018 332.561 498.714 498.715c6.814 6.911 14.925 12.415 23.863 16.199 9.007 3.811 18.675 5.802 28.454 5.857zM864.542 667.858l-132.74 132.74-0.256-0.258-76.988-76.989 132.796-132.796 76.988 76.99c0.081 0.079 0.119 0.133 0.137 0.161l0.038 0.071c0.013 0.024 0.017 0.052 0.026 0.080zM734.976 538.182l-132.796 132.797-355.884-355.885-32.526-113.843 51.481-51.482 113.841 32.529 355.883 355.884zM646.886 530.513l-296.273-296.273-52.374 52.373 296.274 296.273 52.373-52.373z" />
<glyph unicode="&#xe91c;" glyph-name="file" d="M854.601 671.4l-215.202 215.2c-5.999 6-14.097 9.4-22.601 9.4h-424.798c-17.7 0-32-14.3-32-32v-832c0-17.698 14.3-32 32-32h640c17.698 0 32 14.302 32 32v616.7c0 8.5-3.401 16.7-9.399 22.7zM790.199 634h-188.198v188.2l188.198-188.2zM792 72h-560v752h301.999v-216c0-11.139 4.425-21.822 12.301-29.699s18.56-12.302 29.7-12.302h216v-494z" />
<glyph unicode="&#xe91d;" glyph-name="filter" d="M911.996 874.667h12.8c3.678 0 7.206-1.612 9.805-4.482 2.603-2.869 4.062-6.761 4.062-10.819v-13.883c0-0.080 0-0.161 0-0.241v-50.023c0.073-7.093-1.139-14.131-3.567-20.7s-6.020-12.536-10.564-17.553l-305.865-338.393v-397.239l-213.333 94.75v300.139l-305.865 342.509c-4.474 4.892-8.026 10.713-10.451 17.126s-3.677 13.294-3.682 20.244v11.999c-0.002 0.218-0.002 0.436-0.001 0.654v50.612c-0.010 3.862 1.303 7.586 3.677 10.424s5.633 4.58 9.123 4.877h813.862z" />
<glyph unicode="&#xe91e;" glyph-name="grid" d="M369.778 874.667h-213.333c-18.86 0-36.947-7.492-50.283-20.828s-20.828-31.423-20.828-50.283v-213.333c0-18.86 7.492-36.947 20.828-50.283 13.336-13.334 31.423-20.826 50.283-20.826h213.333c18.86 0 36.947 7.492 50.283 20.826 13.334 13.336 20.826 31.424 20.826 50.283v213.333c0 18.86-7.492 36.947-20.826 50.283-13.336 13.336-31.424 20.828-50.283 20.828zM369.778 590.222h-213.333v213.333h213.333v-213.333zM867.554 874.667h-213.333c-18.859 0-36.945-7.492-50.283-20.828-13.333-13.336-20.826-31.423-20.826-50.283v-213.333c0-18.86 7.492-36.947 20.826-50.283 13.338-13.334 31.424-20.826 50.283-20.826h213.333c18.863 0 36.949 7.492 50.283 20.826 13.338 13.336 20.83 31.424 20.83 50.283v213.333c0 18.86-7.492 36.947-20.83 50.283-13.333 13.336-31.42 20.828-50.283 20.828zM867.554 590.222h-213.333v213.333h213.333v-213.333zM369.778 376.887h-213.333c-18.86 0-36.947-7.492-50.283-20.826-13.336-13.338-20.828-31.424-20.828-50.283v-213.333c0-18.863 7.492-36.949 20.828-50.283 13.336-13.338 31.423-20.83 50.283-20.83h213.333c18.86 0 36.947 7.492 50.283 20.83 13.334 13.333 20.826 31.42 20.826 50.283v213.333c0 18.859-7.492 36.945-20.826 50.283-13.336 13.333-31.424 20.826-50.283 20.826zM369.778 92.446h-213.333v213.333h213.333v-213.333zM867.554 376.887h-213.333c-18.859 0-36.945-7.492-50.283-20.826-13.333-13.338-20.826-31.424-20.826-50.283v-213.333c0-18.863 7.492-36.949 20.826-50.283 13.338-13.338 31.424-20.83 50.283-20.83h213.333c18.863 0 36.949 7.492 50.283 20.83 13.338 13.333 20.83 31.42 20.83 50.283v213.333c0 18.859-7.492 36.945-20.83 50.283-13.333 13.333-31.42 20.826-50.283 20.826zM867.554 92.446h-213.333v213.333h213.333v-213.333z" />
<glyph unicode="&#xe91f;" glyph-name="help" d="M512 874.667c-84.386 0-166.878-25.024-237.043-71.906s-124.852-113.519-157.145-191.482c-32.294-77.962-40.743-163.752-24.28-246.517s57.099-158.788 116.77-218.462c59.67-59.669 135.695-100.305 218.46-116.766 82.765-16.465 168.555-8.017 246.515 24.277 77.965 32.294 144.602 86.98 191.484 157.146s71.906 152.657 71.906 237.043c0 113.159-44.954 221.683-124.966 301.699-80.017 80.015-188.54 124.968-301.7 124.968zM506.133 185.335c-8.704 0-17.207 2.577-24.444 7.415-7.236 4.834-12.877 11.703-16.205 19.746-3.332 8.038-4.203 16.883-2.505 25.421 1.698 8.533 5.888 16.375 12.041 22.528s13.995 10.342 22.528 12.041c8.538 1.698 17.382 0.828 25.421-2.5 8.043-3.332 14.912-8.973 19.75-16.209 4.834-7.236 7.415-15.74 7.415-24.444 0-11.669-4.638-22.861-12.89-31.113s-19.443-12.885-31.113-12.885zM542.669 400.269v-45.867c-0.060-9.331-3.682-18.283-10.125-25.028-6.447-6.741-15.228-10.765-24.542-11.238h-2.935c-4.715-0.179-9.421 0.576-13.841 2.227-4.42 1.647-8.469 4.156-11.917 7.381-3.443 3.221-6.221 7.095-8.158 11.396-1.941 4.301-3.012 8.943-3.149 13.662v73.6c-0.439 4.275-0.009 8.593 1.271 12.698 1.28 4.1 3.379 7.902 6.174 11.166 2.795 3.268 6.221 5.935 10.074 7.834 3.853 1.903 8.055 3.004 12.348 3.234 41.865 3.2 111.467 18.667 111.467 86.667 0 48.8-37.602 81.867-91.469 81.867-20.42-0.337-40.525-5.088-58.935-13.925-18.415-8.838-34.696-21.553-47.731-37.275-4.93-5.239-11.307-8.893-18.319-10.497s-14.344-1.088-21.062 1.485c-6.718 2.573-12.519 7.085-16.666 12.964s-6.451 12.857-6.621 20.049c0.157 10.053 4.279 19.637 11.467 26.667 19.804 22.927 44.394 41.232 72.038 53.626s57.668 18.575 87.962 18.107c98.667 0 167.467-61.333 167.467-149.333 0-81.333-52.531-135.733-144.798-151.465z" />
<glyph unicode="&#xe920;" glyph-name="history" d="M512 874.667c235.648 0 426.667-191.019 426.667-426.667s-191.019-426.667-426.667-426.667c-235.648 0-426.667 191.019-426.667 426.667h85.333c0.009-81.728 29.342-160.738 82.666-222.669 53.324-61.935 127.1-102.682 207.919-114.833s163.311 5.099 232.491 48.614c69.18 43.516 120.448 110.409 144.486 188.518 24.043 78.11 19.26 162.257-13.478 237.139s-91.255 135.535-164.919 170.929c-73.668 35.395-157.585 43.185-236.506 21.954s-147.604-70.075-193.566-137.653h111.573v-85.333h-256v256h85.333v-106.667c39.697 53.039 91.222 96.085 150.477 125.713s124.608 45.021 190.856 44.954zM554.667 661.333v-195.627l138.368-138.368-60.373-60.373-163.328 163.413v230.955h85.333z" />
<glyph unicode="&#xe921;" glyph-name="holiday" d="M518.097 204.19c-18.086 0-35.763-5.363-50.795-15.407-15.036-10.048-26.756-24.329-33.677-41.033-6.921-16.708-8.73-35.089-5.201-52.826s12.233-34.027 25.020-46.814c12.787-12.787 29.077-21.491 46.814-25.020s36.117-1.719 52.826 5.201c16.704 6.921 30.985 18.641 41.033 33.677 10.044 15.031 15.407 32.708 15.407 50.795 0 24.247-9.634 47.501-26.778 64.649-17.148 17.143-40.401 26.778-64.649 26.778zM457.143 874.667h121.903v-548.57h-121.903v548.57z" />
<glyph unicode="&#xe922;" glyph-name="information-filled" d="M512 874.667c-84.386 0-166.878-25.024-237.043-71.906s-124.852-113.519-157.145-191.482c-32.294-77.962-40.743-163.752-24.28-246.517s57.099-158.788 116.77-218.462c59.67-59.669 135.695-100.305 218.46-116.766 82.765-16.465 168.555-8.017 246.515 24.277 77.965 32.294 144.602 86.98 191.484 157.146s71.906 152.657 71.906 237.043c0 113.159-44.954 221.684-124.966 301.699-80.017 80.015-188.54 124.968-301.7 124.968zM512 691.81c9.041 0 17.882-2.681 25.399-7.704s13.376-12.163 16.836-20.516c3.46-8.353 4.365-17.545 2.598-26.413-1.762-8.867-6.114-17.013-12.51-23.407-6.391-6.393-14.537-10.747-23.407-12.511-8.866-1.764-18.057-0.859-26.411 2.601s-15.492 9.319-20.518 16.837c-5.022 7.517-7.701 16.356-7.701 25.397 0 12.124 4.817 23.752 13.389 32.325s20.198 13.39 32.324 13.39zM633.903 200.38h-243.808v68.574h87.618v175.236h-57.141v68.574h125.715v-243.81h87.616v-68.574z" />
<glyph unicode="&#xe923;" glyph-name="key" d="M664.38 874.667c-42.829 0.010-85.069-10.013-123.328-29.267s-71.479-47.2-96.994-81.603c-25.514-34.403-42.615-74.304-49.933-116.505s-4.648-85.53 7.795-126.515l-316.587-316.587v-182.857h182.857l316.586 316.587c37.726-11.452 77.478-14.635 116.548-9.335 39.066 5.303 76.535 18.965 109.845 40.055s61.683 49.114 83.183 82.159c21.504 33.050 35.627 70.345 41.408 109.344 5.786 38.999 3.093 78.788-7.889 116.653-10.987 37.865-30.003 72.917-55.761 102.768-25.754 29.85-57.643 53.798-93.491 70.209s-74.812 24.902-114.24 24.893zM664.38 387.046c-20.979 0.013-41.847 3.115-61.926 9.203l-34.957 10.607-122.756-122.756-42.028 41.997-43.093-43.093 42.027-42.027-48.335-48.337-42.027 42.027-43.093-43.093 42.027-42.027-67.261-67.26h-96.671v96.67l324.571 324.54-10.607 34.957c-13.026 42.941-12.177 88.896 2.419 131.329 14.601 42.433 42.206 79.182 78.895 105.019s80.589 39.449 125.461 38.897c44.868-0.552 88.422-15.239 124.463-41.972s62.737-64.149 76.288-106.928c13.547-42.779 13.265-88.741-0.815-131.348s-41.233-79.69-77.606-105.977c-36.369-26.283-80.102-40.431-124.975-40.427zM694.857 569.905c33.664 0 60.954 27.29 60.954 60.952s-27.29 60.953-60.954 60.953c-33.664 0-60.954-27.29-60.954-60.953s27.29-60.952 60.954-60.952z" />
<glyph unicode="&#xe924;" glyph-name="list" d="M298.667 789.333h640v-71.111h-640v71.111zM298.667 149.333h640v-71.113h-640v71.113zM298.667 469.333h640v-71.113h-640v71.113zM85.333 469.333h71.111v-71.113h-71.111v71.113zM85.333 789.333h71.111v-71.111h-71.111v71.111zM85.333 149.333h71.111v-71.113h-71.111v71.113z" />
<glyph unicode="&#xe925;" glyph-name="location" d="M512 874.667c-165.12 0-298.667-133.547-298.667-298.667 0-224 298.667-554.667 298.667-554.667s298.667 330.667 298.667 554.667c0 165.12-133.547 298.667-298.667 298.667zM512 469.333c-28.288 0-55.42 11.238-75.426 31.241-20.003 20.006-31.241 47.136-31.241 75.426s11.238 55.421 31.241 75.425c20.006 20.004 47.138 31.242 75.426 31.242s55.42-11.238 75.426-31.242c20.002-20.004 31.241-47.135 31.241-75.425s-11.238-55.42-31.241-75.426c-20.006-20.002-47.138-31.241-75.426-31.241z" />
<glyph unicode="&#xe926;" glyph-name="logout" d="M682.667 405.333v85.333h-384v128l-213.333-170.667 213.333-170.667v128h384zM853.333 832h-384c-47.061 0-85.333-38.272-85.333-85.333v-170.667h85.333v170.667h384v-597.333h-384v170.667h-85.333v-170.667c0-47.061 38.272-85.333 85.333-85.333h384c47.061 0 85.333 38.272 85.333 85.333v597.333c0 47.061-38.272 85.333-85.333 85.333z" />
<glyph unicode="&#xe927;" glyph-name="log-out" d="M200.205 743.385c-13.057 0-25.579-5.187-34.811-14.42s-14.42-21.754-14.42-34.811v-492.306c0-13.060 5.187-25.579 14.42-34.812s21.754-14.421 34.811-14.421h328.204c13.056 0 25.579 5.188 34.812 14.421s14.421 21.751 14.421 34.812v82.048c0 18.129 14.694 32.823 32.819 32.823s32.819-14.694 32.819-32.823v-82.048c0-30.468-12.1-59.686-33.643-81.229s-50.761-33.643-81.229-33.643h-328.204c-30.466 0-59.684 12.1-81.227 33.643s-33.645 50.761-33.645 81.229v492.306c0 30.466 12.102 59.684 33.645 81.227s50.761 33.645 81.227 33.645h311.795c30.818 0 62.421-12.18 86.464-31.019 23.919-18.741 44.817-47.855 44.817-83.853v-82.051c0-18.126-14.694-32.82-32.819-32.82s-32.819 14.694-32.819 32.82v82.051c0 9.315-5.679 21.227-19.661 32.183-13.858 10.858-31.488 17.048-45.982 17.048h-311.795zM718.537 635.31c12.817 12.817 33.596 12.817 46.413 0l164.105-164.104c12.817-12.817 12.817-33.596 0-46.413l-164.105-164.105c-12.817-12.817-33.596-12.817-46.413 0s-12.817 33.6 0 46.417l108.075 108.075h-478.714c-18.127 0-32.82 14.694-32.82 32.819s14.694 32.819 32.82 32.819h478.714l-108.075 108.076c-12.817 12.817-12.817 33.598 0 46.415z" />
<glyph unicode="&#xe928;" glyph-name="loop" d="M754.88 338.88l77.12-82.88h-160v-64h160l-77.12-82.88 45.12-45.12 160 160-160 160-45.12-45.12zM416 768c-52.144-0.019-103.305-14.195-148.023-41.014s-81.316-65.277-105.888-111.268c-24.573-45.991-36.198-97.791-33.635-149.87 2.563-52.083 19.217-102.49 48.186-145.847l53.12 35.52c-27.752 41.519-40.834 91.119-37.168 140.924s23.869 96.954 57.401 133.962 78.468 61.748 127.671 70.292c49.204 8.544 99.849 0.401 143.894-23.135s78.963-61.115 99.204-106.768c20.241-45.653 24.649-96.759 12.518-145.203s-40.102-91.443-79.467-122.172c-39.369-30.729-87.876-47.415-137.813-47.42h-352v-64h352c76.382 0 149.636 30.345 203.648 84.352 54.007 54.012 84.352 127.266 84.352 203.648s-30.345 149.636-84.352 203.647c-54.012 54.010-127.266 84.353-203.648 84.353z" />
<glyph unicode="&#xe929;" glyph-name="mail" d="M122.823 751.843c24.005 24.005 56.562 37.49 90.51 37.49h597.334c33.946 0 66.505-13.486 90.509-37.49s37.491-56.562 37.491-90.51v-42.004c0.004-0.416 0.004-0.831 0-1.246v-383.416c0-33.95-13.487-66.505-37.491-90.509s-56.563-37.491-90.509-37.491h-597.334c-33.948 0-66.505 13.487-90.51 37.491s-37.49 56.563-37.49 90.509v383.417c-0.006 0.415-0.006 0.83 0 1.245v42.005c0 33.948 13.486 66.505 37.49 90.51zM170.666 538.943v-304.276c0-11.315 4.495-22.17 12.497-30.17s18.854-12.497 30.17-12.497h597.334c11.315 0 22.17 4.497 30.17 12.497s12.497 18.854 12.497 30.17v304.276l-270.293-180.198c-0.004 0-0.009-0.004-0.013-0.009-21.030-14.025-45.747-21.513-71.027-21.513s-49.997 7.488-71.027 21.513c-0.004 0.004-0.009 0.009-0.013 0.009l-270.294 180.198zM853.333 641.501v19.832c0 11.316-4.497 22.168-12.497 30.17s-18.854 12.497-30.17 12.497h-597.334c-11.316 0-22.168-4.495-30.17-12.497s-12.497-18.854-12.497-30.17v-19.832l317.654-211.771c7.010-4.676 15.249-7.172 23.68-7.172 8.427 0 16.67 2.496 23.68 7.172l317.653 211.771z" />
<glyph unicode="&#xe92a;" glyph-name="mail-read" d="M512 780.721c8.427 0 16.683-2.507 23.693-7.185l298.654-199.074c0.004 0 0 0 0 0 5.303-3.538 9.741-8.215 12.988-13.68l-311.654-207.772c-7.010-4.676-15.253-7.172-23.68-7.172-8.431 0-16.683 2.505-23.693 7.181l-311.645 207.763c3.25 5.465 7.688 10.143 12.99 13.681 0.001 0 0 0 0 0l298.668 199.083c7.010 4.678 15.249 7.174 23.68 7.174zM938.654 540.772c0.051 1.807-0.013 3.621-0.192 5.431-1.050 18.558-6.131 36.696-14.925 53.138-9.937 18.577-24.307 34.415-41.83 46.108l-298.667 199.083c-21.030 14.028-45.76 21.523-71.040 21.523s-49.993-7.486-71.027-21.513c0.009 0.003-0.004-0.003 0 0l-298.665-199.083c-17.525-11.693-31.909-27.54-41.845-46.118-8.794-16.442-13.876-34.58-14.926-53.138-0.18-1.809-0.243-3.624-0.192-5.431-0.009-0.604-0.013-1.208-0.013-1.813 0 0.002 0-0.002 0 0v-381.011c0-33.95 13.486-66.509 37.49-90.513s56.562-37.487 90.51-37.487h597.334c33.946 0 66.505 13.483 90.509 37.487s37.491 56.563 37.491 90.513v381.005c0-0.002 0 0.002 0 0 0 0.605-0.004 1.216-0.013 1.82zM853.333 462.221v-224.55l-168.414 112.277 168.414 112.273zM848.542 138.304c-1.997-3.849-4.582-7.407-7.706-10.53-8-8-18.854-12.493-30.17-12.493h-597.334c-11.316 0-22.168 4.493-30.17 12.493-3.123 3.123-5.711 6.682-7.707 10.53l240.544 160.363 24.974-16.649c0.004-0.004-0.004 0.004 0 0 21.030-14.029 45.747-21.513 71.027-21.513s50.010 7.492 71.040 21.521c0.004 0.004-0.004-0.004 0 0l24.96 16.64 240.542-160.363zM170.666 237.67v224.55l168.415-112.273-168.415-112.277z" />
<glyph unicode="&#xe92b;" glyph-name="meeting" d="M192 382.78h4.267v426.668h448v69.486h-452.267c-37.358 0-68.267-29.145-68.267-65.219v-430.935h68.267zM879.744 490.709l-194.987 185.699c-10.615 13.293-27.895 19.668-44.757 19.668h-256c-37.358 0-68.267-29.145-68.267-65.219v-548.57c0-36.075 30.909-65.22 68.267-65.22h448c37.359 0 68.267 29.146 68.267 65.22v362.667c0 16.474-6.929 32.811-20.523 45.756zM644.267 452.267v168.518l173.995-168.518h-173.995zM388.267 86.554v540.037h183.467v-178.59c0-36.075 30.908-65.22 68.267-65.22h187.733v-296.226h-439.467z" />
<glyph unicode="&#xe92c;" glyph-name="menu" d="M725.333 234.667h213.333v-213.333h-213.333v213.333zM405.333 234.667h213.333v-213.333h-213.333v213.333zM85.333 234.667h213.333v-213.333h-213.333v213.333zM725.333 554.667h213.333v-213.333h-213.333v213.333zM405.333 554.667h213.333v-213.333h-213.333v213.333zM85.333 554.667h213.333v-213.333h-213.333v213.333zM725.333 874.667h213.333v-213.333h-213.333v213.333zM405.333 874.667h213.333v-213.333h-213.333v213.333zM85.333 874.667h213.333v-213.333h-213.333v213.333z" />
<glyph unicode="&#xe92d;" glyph-name="minutes" d="M863.684 204.19v4.267h-121.903v121.903h-69.483v-121.903h-121.903v-69.487h121.903v-121.903h69.483v121.903h121.903v65.22zM437.026 82.287v4.267h-243.808v722.885h235.275v-178.601c0.051-17.278 6.938-33.833 19.153-46.051 12.22-12.217 28.774-19.104 46.050-19.155h178.603v-121.903h69.483v187.066c0.115 4.601-0.764 9.173-2.577 13.405-1.805 4.215-4.497 7.991-7.889 11.075l-213.18 213.181c-3.085 3.395-6.861 6.086-11.076 7.893-4.228 1.814-8.802 2.692-13.406 2.575h-304.714c-17.278-0.052-33.833-6.938-46.051-19.155s-19.104-28.773-19.155-46.050v-731.444c0.052-17.28 6.938-33.835 19.155-46.050 12.217-12.22 28.773-19.106 46.051-19.157h248.087v65.22zM497.975 635.116v156.097l156.1-156.097h-156.1z" />
<glyph unicode="&#xe92e;" glyph-name="more-vert" d="M444.958 846.896c17.783 17.781 41.899 27.77 67.046 27.77 25.143 0 49.263-9.99 67.042-27.77s27.772-41.898 27.772-67.044c0-25.146-9.993-49.263-27.772-67.044s-41.899-27.77-67.042-27.77c-25.148 0-49.263 9.989-67.046 27.77-17.779 17.781-27.77 41.898-27.77 67.044s9.991 49.263 27.77 67.044zM444.958 515.042c17.783 17.783 41.899 27.773 67.046 27.773 25.143 0 49.263-9.989 67.042-27.773 17.779-17.779 27.772-41.894 27.772-67.042s-9.993-49.263-27.772-67.042c-17.779-17.783-41.899-27.772-67.042-27.772-25.148 0-49.263 9.988-67.046 27.772-17.779 17.779-27.77 41.894-27.77 67.042s9.991 49.263 27.77 67.042zM444.958 183.194c17.783 17.779 41.899 27.767 67.046 27.767 25.143 0 49.263-9.988 67.042-27.767 17.783-17.783 27.772-41.899 27.772-67.046 0-25.143-9.988-49.263-27.772-67.042-17.779-17.783-41.899-27.772-67.042-27.772-25.148 0-49.263 9.988-67.046 27.772-17.779 17.779-27.77 41.899-27.77 67.042 0 25.148 9.991 49.263 27.77 67.046z" />
<glyph unicode="&#xe92f;" glyph-name="notification" d="M885.905 336.388l-79.654 79.654v105.519c-0.090 72.922-27.217 143.219-76.134 197.299s-116.147 88.101-188.693 95.485v60.322h-58.85v-60.322c-72.547-7.384-139.778-41.405-188.694-95.485s-76.043-124.376-76.134-197.299v-105.519l-79.654-79.654c-5.519-5.517-8.62-13.001-8.622-20.8v-88.277c0-7.804 3.1-15.287 8.619-20.809 5.518-5.517 13.003-8.619 20.807-8.619h205.977v-29.423c0-39.023 15.5-76.442 43.092-104.034s65.014-43.093 104.032-43.093c39.023 0 76.446 15.501 104.034 43.093 27.593 27.593 43.093 65.011 43.093 104.034v29.423h205.978c7.804 0 15.287 3.102 20.809 8.619 5.517 5.521 8.619 13.005 8.619 20.809v88.277c-0.004 7.799-3.106 15.283-8.623 20.8zM600.273 168.461c0-23.411-9.301-45.867-25.856-62.421s-39.006-25.856-62.421-25.856c-23.411 0-45.862 9.301-62.417 25.856s-25.857 39.010-25.857 62.421v29.423h176.551v-29.423z" />
<glyph unicode="&#xe930;" glyph-name="notification-1" d="M432.896 821.419c6.374 15.756 17.31 29.25 31.403 38.751 14.097 9.501 30.707 14.577 47.701 14.577 16.998 0 33.609-5.076 47.701-14.577s25.028-22.995 31.403-38.751c63.095-17.352 118.746-54.936 158.413-106.98 39.663-52.044 61.15-115.669 61.15-181.105v-200.405l78.165-117.248c4.288-6.426 6.75-13.897 7.125-21.611s-1.353-15.386-4.996-22.199c-3.644-6.81-9.071-12.501-15.697-16.474-6.626-3.968-14.204-6.063-21.931-6.063h-193.493c-5.137-35.546-22.908-68.049-50.061-91.558-27.149-23.509-61.862-36.45-97.779-36.45-35.913 0-70.626 12.941-97.778 36.45s-44.924 56.013-50.061 91.558h-193.493c-7.725 0-15.305 2.095-21.931 6.063-6.627 3.972-12.052 9.664-15.696 16.474-3.644 6.814-5.371 14.485-4.996 22.199s2.837 15.185 7.124 21.611l78.165 117.248v200.405c0 137.557 93.013 253.44 219.561 288.085zM451.669 149.333c4.407-12.484 12.578-23.3 23.39-30.946 10.807-7.65 23.723-11.755 36.962-11.755 13.244 0 26.159 4.105 36.966 11.755 10.807 7.646 18.978 18.462 23.386 30.946h-120.704zM512 746.667c-56.58 0-110.84-22.476-150.848-62.484s-62.484-94.27-62.484-150.849v-213.333c0.002-8.427-2.493-16.67-7.168-23.68l-41.088-61.653h523.135l-41.088 61.653c-4.659 7.019-7.138 15.258-7.125 23.68v213.333c0 56.579-22.477 110.842-62.481 150.849-40.009 40.008-94.272 62.484-150.852 62.484z" />
<glyph unicode="&#xe931;" glyph-name="people" d="M448 64c0 0-64 0-64 64s64 256 320 256c256 0 320-192 320-256s-64-64-64-64h-512zM704 448c50.923 0 99.759 20.228 135.765 56.235s56.235 84.844 56.235 135.765-20.228 99.758-56.235 135.764c-36.006 36.007-84.843 56.236-135.765 56.236s-99.759-20.229-135.765-56.236c-36.006-36.007-56.235-84.843-56.235-135.764s20.228-99.758 56.235-135.765c36.006-36.006 84.843-56.235 135.765-56.235zM333.824 64c-9.488 19.981-14.22 41.886-13.824 64 0 86.72 43.52 176 123.904 238.080-40.122 12.361-81.923 18.406-123.904 17.92-256 0-320-192-320-256s64-64 64-64h269.824zM288 448c42.435 0 83.131 16.858 113.137 46.861 30.005 30.007 46.863 70.705 46.863 113.139s-16.858 83.131-46.863 113.137c-30.006 30.006-70.703 46.863-113.137 46.863s-83.131-16.857-113.137-46.863c-30.006-30.006-46.863-70.703-46.863-113.137s16.857-83.132 46.863-113.139c30.006-30.003 70.703-46.861 113.137-46.861z" />
<glyph unicode="&#xe932;" glyph-name="person" d="M156.445 21.333c0 0-71.111 0-71.111 71.113 0 71.108 71.111 284.442 426.667 284.442 355.554 0 426.667-213.333 426.667-284.442 0-71.113-71.113-71.113-71.113-71.113h-711.11zM512 448c56.58 0 110.844 22.477 150.848 62.485 40.009 40.006 62.485 94.269 62.485 150.848s-22.477 110.842-62.485 150.849c-40.004 40.008-94.268 62.484-150.848 62.484s-110.842-22.476-150.849-62.484c-40.008-40.008-62.484-94.27-62.484-150.849s22.476-110.842 62.484-150.848c40.008-40.009 94.269-62.485 150.849-62.485z" />
<glyph unicode="&#xe933;" glyph-name="phone" d="M807.415 64h-5.018c-580.219 33.378-662.601 523.126-674.117 672.591-0.928 11.621 0.445 23.311 4.042 34.4s9.344 21.359 16.914 30.223c7.571 8.863 16.815 16.145 27.204 21.428s21.717 8.463 33.336 9.359h162.697c11.828 0.012 23.386-3.53 33.178-10.166s17.367-16.060 21.744-27.052l44.881-110.474c4.322-10.739 5.393-22.511 3.085-33.854s-7.902-21.757-16.077-29.949l-62.894-63.508c9.824-55.851 36.56-107.333 76.59-147.482 40.034-40.154 91.426-67.034 147.23-77.009l64.073 63.505c8.316 8.090 18.825 13.551 30.217 15.706 11.396 2.155 23.172 0.905 33.86-3.593l111.317-44.604c10.825-4.514 20.058-12.151 26.526-21.939 6.468-9.783 9.877-21.274 9.796-33.003v-155.964c0-23.501-9.335-46.042-25.946-62.66-16.614-16.619-39.147-25.954-62.639-25.954zM216.864 772.923c-7.831 0-15.342-3.112-20.879-8.652s-8.649-13.053-8.649-20.887v-2.363c13.583-174.868 100.689-588.407 618.308-617.945 3.878-0.239 7.765 0.29 11.443 1.557 3.674 1.267 7.061 3.247 9.967 5.824 2.91 2.581 5.282 5.709 6.976 9.207 1.698 3.499 2.688 7.296 2.914 11.179v157.734l-111.322 44.604-84.745-84.186-14.174 1.775c-256.888 32.196-291.731 289.18-291.731 291.838l-1.772 14.179 83.858 84.775-44.291 111.36h-155.906z" />
<glyph unicode="&#xe934;" glyph-name="popup-detail" d="M654.221 661.361h-497.777c-18.853-0.021-36.928-7.52-50.26-20.851s-20.83-31.406-20.851-50.26v-497.775c0.021-18.854 7.52-36.928 20.851-50.261 13.331-13.329 31.407-20.83 50.26-20.851h497.777c18.85 0.021 36.928 7.522 50.257 20.851 13.333 13.333 20.83 31.407 20.851 50.261v497.775c-0.021 18.854-7.518 36.928-20.851 50.26-13.329 13.331-31.407 20.83-50.257 20.851zM654.221 92.476h-497.777v497.775h497.777v-497.775zM547.558 839.111c0 9.43 3.746 18.473 10.415 25.141 6.665 6.668 15.71 10.414 25.139 10.414h71.113c9.429 0 18.47-3.746 25.139-10.414s10.415-15.712 10.415-25.141c0-9.43-3.746-18.473-10.415-25.141s-15.71-10.414-25.139-10.414h-71.113c-9.429 0-18.475 3.746-25.139 10.414-6.669 6.668-10.415 15.712-10.415 25.141zM938.667 803.556v-35.555c0-9.43-3.746-18.473-10.415-25.141s-15.71-10.414-25.139-10.414c-9.429 0-18.475 3.746-25.143 10.414s-10.415 15.712-10.415 25.141v35.555h-35.554c-9.429 0-18.475 3.746-25.139 10.414-6.669 6.668-10.415 15.712-10.415 25.141s3.746 18.473 10.415 25.141c6.665 6.668 15.71 10.414 25.139 10.414h35.554c18.854-0.021 36.928-7.52 50.261-20.851 13.329-13.331 20.83-31.406 20.851-50.26zM938.667 590.224v-71.111c0-9.429-3.746-18.475-10.415-25.139-6.669-6.669-15.71-10.415-25.139-10.415s-18.475 3.746-25.143 10.415c-6.669 6.665-10.415 15.71-10.415 25.139v71.111c0 9.43 3.746 18.473 10.415 25.141s15.714 10.414 25.143 10.414c9.429 0 18.47-3.746 25.139-10.414s10.415-15.712 10.415-25.141zM938.667 341.338v-35.558c-0.021-18.85-7.522-36.928-20.851-50.257-13.333-13.333-31.407-20.83-50.261-20.851h-35.554c-9.429 0-18.475 3.746-25.139 10.415-6.669 6.665-10.415 15.71-10.415 25.139s3.746 18.475 10.415 25.143c6.665 6.665 15.71 10.411 25.139 10.411h35.554v35.558c0 9.429 3.746 18.47 10.415 25.139s15.714 10.415 25.143 10.415c9.429 0 18.47-3.746 25.139-10.415s10.415-15.71 10.415-25.139zM298.67 768v35.555c0.021 18.854 7.52 36.928 20.851 50.26s31.406 20.83 50.26 20.851h35.555c9.43 0 18.474-3.746 25.141-10.414 6.669-6.668 10.415-15.712 10.415-25.141s-3.746-18.473-10.415-25.141c-6.667-6.668-15.711-10.414-25.141-10.414h-35.555v-35.555c0-9.43-3.746-18.473-10.414-25.141s-15.712-10.414-25.141-10.414c-9.43 0-18.474 3.746-25.142 10.414s-10.414 15.712-10.414 25.141z" />
<glyph unicode="&#xe935;" glyph-name="print" d="M877.713 649.143h-91.426v182.857h-548.573v-182.857h-91.429c-16.166 0-31.669-6.422-43.1-17.853s-17.853-26.935-17.853-43.1v-304.76c0-16.166 6.422-31.671 17.853-43.102s26.934-17.852 43.1-17.852h91.429v-182.857h548.573v182.857h91.426c16.166 0 31.671 6.421 43.102 17.852s17.852 26.935 17.852 43.102v304.76c0 16.166-6.421 31.669-17.852 43.1s-26.935 17.853-43.102 17.853zM298.667 771.048h426.667v-121.905h-426.667v121.905zM725.333 100.57h-426.667v304.764h426.667v-304.764zM877.713 283.43h-91.426v182.857h-548.573v-182.857h-91.429v304.76h731.427v-304.76z" />
<glyph unicode="&#xe936;" glyph-name="progress" d="M938.667 39.62h-243.81v792.38h243.81v-792.38zM755.81 100.57h121.903v670.478h-121.903v-670.478zM633.903 39.62h-243.808v548.57h243.808v-548.57zM451.046 100.57h121.907v426.667h-121.907v-426.667zM329.143 39.62h-243.81v365.713h243.81v-365.713zM146.286 100.57h121.905v243.81h-121.905v-243.81z" />
<glyph unicode="&#xe937;" glyph-name="remove" d="M512 874.667c-84.386 0-166.878-25.024-237.043-71.906s-124.852-113.519-157.145-191.482c-32.294-77.962-40.743-163.752-24.28-246.517s57.099-158.788 116.77-218.462c59.67-59.669 135.695-100.305 218.46-116.766 82.765-16.465 168.555-8.017 246.515 24.277 77.965 32.294 144.602 86.98 191.484 157.146s71.906 152.657 71.906 237.043c0 113.159-44.954 221.684-124.966 301.699-80.017 80.015-188.54 124.968-301.7 124.968zM725.333 285.333c7.074-7.074 11.046-16.666 11.046-26.667s-3.972-19.593-11.046-26.667c-7.074-7.074-16.666-11.046-26.667-11.046s-19.593 3.972-26.667 11.046l-160 160-160-160.533c-3.502-3.503-7.659-6.281-12.235-8.175s-9.479-2.871-14.432-2.871c-4.952 0-9.856 0.977-14.432 2.871s-8.733 4.672-12.235 8.175c-3.502 3.503-6.28 7.659-8.175 12.237-1.895 4.574-2.871 9.476-2.871 14.43s0.975 9.856 2.871 14.434c1.895 4.574 4.673 8.73 8.175 12.233l160 161.067-164.533 165.867c-7.072 7.072-11.046 16.665-11.046 26.667s3.973 19.594 11.046 26.667c7.072 7.072 16.665 11.046 26.667 11.046s19.594-3.973 26.667-11.046l164.533-166.4 164.535 164.533c3.499 3.502 7.659 6.28 12.233 8.175s9.481 2.871 14.434 2.871c4.949 0 9.856-0.975 14.43-2.871s8.734-4.673 12.237-8.175c3.499-3.502 6.276-7.659 8.175-12.235 1.894-4.576 2.867-9.48 2.867-14.432s-0.973-9.856-2.867-14.432c-1.899-4.575-4.676-8.733-8.175-12.235l-164.535-164 160-160.533z" />
<glyph unicode="&#xe938;" glyph-name="reply" d="M414.17 819.503c16.661-16.663 16.661-43.677 0-60.34l-183.164-183.163h323.66c101.841 0 199.514-40.457 271.531-112.469 72.013-72.017 112.469-169.69 112.469-271.531v-85.333c0-23.565-19.102-42.667-42.667-42.667s-42.667 19.102-42.667 42.667v85.333c0 79.211-31.467 155.179-87.479 211.187-56.009 56.013-131.977 87.479-211.187 87.479h-323.66l183.164-183.164c16.661-16.661 16.661-43.678 0-60.339-16.663-16.661-43.677-16.661-60.34 0l-256 256c-16.662 16.661-16.662 43.677 0 60.34l256 256c16.663 16.662 43.677 16.662 60.34 0z" />
<glyph unicode="&#xe939;" glyph-name="save" d="M810.667 448v-298.667h-597.333v298.667h-85.333v-298.667c0-46.933 38.4-85.333 85.333-85.333h597.333c46.933 0 85.333 38.4 85.333 85.333v298.667h-85.333zM554.667 419.413l110.507 110.080 60.16-60.16-213.333-213.333-213.333 213.333 60.16 60.16 110.507-110.080v412.587h85.333v-412.587z" />
<glyph unicode="&#xe93a;" glyph-name="scan" d="M128 789.333v-213.333h85.333v170.667h170.667v85.333h-213.333c-11.316 0-22.168-4.495-30.17-12.497s-12.497-18.854-12.497-30.17zM896 576v213.333c0 11.316-4.497 22.168-12.497 30.17s-18.854 12.497-30.17 12.497h-213.333v-85.333h170.667v-170.667h85.333zM810.667 149.333h-170.667v-85.333h213.333c11.315 0 22.17 4.497 30.17 12.497s12.497 18.854 12.497 30.17v213.333h-85.333v-170.667zM384 64v85.333h-170.667v170.667h-85.333v-213.333c0-11.315 4.495-22.17 12.497-30.17s18.854-12.497 30.17-12.497h213.333zM85.333 490.667h853.333v-85.333h-853.333v85.333z" />
<glyph unicode="&#xe93b;" glyph-name="search" d="M938.662 65.963l-238.362 238.366c57.28 68.766 85.841 156.966 79.748 246.258-6.097 89.29-46.379 172.793-112.474 233.138s-152.909 92.885-242.382 90.852c-89.475-2.033-174.721-38.483-238.006-101.768s-99.735-148.531-101.768-238.006c-2.033-89.475 30.508-176.288 90.852-242.383 60.345-66.091 143.848-106.377 233.138-112.474 89.29-6.093 177.491 22.473 246.257 79.753l238.366-238.366 44.629 44.629zM149.585 526.345c0 56.182 16.66 111.104 47.874 157.819s75.579 83.124 127.486 104.625c51.907 21.5 109.021 27.126 164.125 16.165s105.724-38.016 145.451-77.743c39.727-39.728 66.782-90.344 77.743-145.448 10.961-55.102 5.333-112.22-16.166-164.128-21.5-51.904-57.911-96.269-104.623-127.484-46.716-31.215-101.636-47.876-157.82-47.876-75.316 0.085-147.521 30.042-200.776 83.294-53.255 53.257-83.211 125.461-83.294 200.777z" />
<glyph unicode="&#xe93c;" glyph-name="send" d="M878.4 476.48l-704.001 352c-5.518 2.76-11.715 3.865-17.847 3.184s-11.935-3.12-16.713-7.024c-4.562-3.824-7.968-8.844-9.833-14.497s-2.117-11.715-0.727-17.503l94.72-344.64-96-343.68c-1.305-4.834-1.457-9.907-0.445-14.81s3.161-9.502 6.274-13.423c3.113-3.921 7.102-7.057 11.647-9.156s9.52-3.106 14.524-2.931c5.009 0.030 9.942 1.237 14.4 3.52l704.001 352c5.239 2.684 9.638 6.767 12.71 11.789 3.072 5.026 4.698 10.803 4.698 16.691s-1.626 11.665-4.698 16.691c-3.072 5.022-7.471 9.105-12.71 11.789zM209.599 156.48l70.72 259.52h295.681v64h-295.681l-70.72 259.52 582.721-291.52-582.721-291.52z" />
<glyph unicode="&#xe93d;" glyph-name="settings" d="M857.131 424.772v46.763l60.267 51.345c11.11 9.532 18.402 22.584 20.582 36.845 2.185 14.261-0.883 28.815-8.653 41.088l-74.082 122.251c-5.504 9.283-13.419 16.993-22.95 22.358s-20.343 8.194-31.356 8.205c-6.822 0.051-13.606-0.981-20.087-3.056l-76.279-25.062c-13.167 8.521-26.906 16.178-41.122 22.922l-16.009 77.018c-2.867 14.071-10.731 26.71-22.208 35.706s-25.839 13.775-40.572 13.5h-146.906c-14.731 0.275-29.093-4.504-40.57-13.5s-19.34-21.635-22.21-35.706l-16.009-77.018c-14.316-6.742-28.158-14.4-41.435-22.922l-74.708 26.284c-6.551 1.662-13.335 2.281-20.090 1.834-11.009-0.011-21.822-2.841-31.354-8.205s-17.446-13.075-22.951-22.358l-74.081-122.251c-7.327-12.255-10.049-26.609-7.702-40.605s9.62-26.759 20.572-36.109l59.328-52.873v-46.763l-59.328-51.345c-11.261-9.412-18.732-22.404-21.088-36.672s0.556-28.885 8.218-41.263l74.081-122.249c5.505-9.284 13.42-16.994 22.951-22.357 9.532-5.367 20.344-8.196 31.354-8.205 6.823-0.051 13.609 0.981 20.090 3.055l76.278 25.062c13.169-8.521 26.907-16.179 41.121-22.925l16.009-77.018c2.871-14.071 10.733-26.709 22.21-35.703 11.477-8.998 25.839-13.777 40.569-13.5h148.164c14.729-0.277 29.090 4.501 40.567 13.5 11.477 8.994 19.341 21.632 22.212 35.703l16.009 77.018c14.315 6.746 28.156 14.4 41.434 22.925l75.964-25.062c6.485-2.074 13.269-3.106 20.092-3.055 11.008 0.009 21.824 2.837 31.351 8.205 9.532 5.363 17.451 13.073 22.955 22.357l71.569 122.249c7.326 12.258 10.048 26.611 7.701 40.606s-9.621 26.761-20.574 36.109l-59.324 52.873zM800.939 203.499l-107.665 35.452c-25.207-20.787-54.012-37.035-85.069-47.983l-22.289-109.722h-148.16l-22.287 108.501c-30.812 11.26-59.462 27.477-84.753 47.983l-107.983-34.231-74.081 122.249 85.382 73.353c-5.804 31.637-5.804 64.026 0 95.663l-85.382 75.488 74.081 122.251 107.668-35.453c25.204 20.786 54.010 37.034 85.068 47.983l22.287 109.72h148.16l22.289-108.498c30.81-11.26 59.46-27.48 84.753-47.983l107.981 34.23 74.082-122.251-85.38-73.351c5.803-31.637 5.803-64.026 0-95.663l85.38-75.49-74.082-122.249zM511.838 264.623c-37.252 0-73.664 10.756-104.637 30.903-30.973 20.151-55.113 48.789-69.368 82.3-14.255 33.506-17.985 70.379-10.718 105.95s25.205 68.245 51.545 93.891c26.34 25.646 59.898 43.111 96.433 50.186s74.402 3.444 108.817-10.435c34.415-13.879 63.829-37.383 84.527-67.539 20.693-30.156 31.74-65.612 31.74-101.879 0.252-24.149-4.446-48.107-13.824-70.464-9.374-22.357-23.236-42.671-40.777-59.75-17.54-17.075-38.404-30.575-61.367-39.701-22.963-9.131-47.569-13.705-72.371-13.461zM511.838 570.251c-16.597 0.376-33.097-2.529-48.503-8.539-15.411-6.010-29.406-15.001-41.143-26.429-11.737-11.43-20.972-25.053-27.145-40.059-6.173-15.002-9.157-31.066-8.77-47.223-0.387-16.158 2.597-32.222 8.77-47.223 6.173-15.006 15.408-28.629 27.145-40.060 11.737-11.426 25.732-20.42 41.143-26.428 15.407-6.012 31.906-8.917 48.503-8.542 16.593-0.375 33.092 2.53 48.503 8.542 15.407 6.007 29.406 15.002 41.139 26.428 11.738 11.43 20.975 25.054 27.149 40.060 6.17 15.002 9.156 31.066 8.768 47.223 0.388 16.158-2.598 32.222-8.768 47.223-6.174 15.006-15.411 28.629-27.149 40.059-11.733 11.428-25.732 20.419-41.139 26.429-15.411 6.010-31.91 8.916-48.503 8.539z" />
<glyph unicode="&#xe93e;" glyph-name="share" d="M768.047 330.018h-0.021c-23.428-0.115-46.528-5.491-67.597-15.727-19.925-9.681-37.555-23.475-51.733-40.461l-216.585 135.403c7.113 25.028 7.113 51.546 0 76.574l216.61 135.42c23.040-27.161 54.694-45.679 89.741-52.426 36.292-6.986 73.882-0.902 106.116 17.175s57.033 46.978 69.995 81.586c12.966 34.608 13.265 72.688 0.841 107.494-12.42 34.806-36.762 64.092-68.71 82.67s-69.44 25.248-105.835 18.83c-36.395-6.418-69.346-25.511-93.009-53.896-23.667-28.385-36.523-64.231-36.292-101.187l0.004-0.018c0.132-12.924 1.941-25.772 5.367-38.225l-216.615-135.42c-19.957 23.903-46.615 41.332-76.58 50.011-31.189 9.034-64.415 8.141-95.073-2.554s-57.231-30.663-76.033-57.136c-18.802-26.472-28.904-58.139-28.904-90.608s10.101-64.137 28.904-90.611c18.802-26.47 45.374-46.438 76.033-57.135s63.884-11.588 95.073-2.556c29.965 8.683 56.623 26.112 76.58 50.014l216.615-135.42c-3.426-12.454-5.235-25.301-5.372-38.225v-0.047c0-30.946 9.178-61.201 26.372-86.933s41.634-45.79 70.225-57.63c28.591-11.844 60.053-14.942 90.406-8.905 30.357 6.037 58.236 20.941 80.119 42.825s36.787 49.762 42.825 80.115c6.037 30.357 2.94 61.815-8.905 90.411-11.844 28.591-31.898 53.030-57.63 70.225s-55.987 26.368-86.933 26.368zM768.047 808.559c17.216 0 34.048-5.106 48.367-14.672 14.315-9.566 25.476-23.163 32.064-39.071s8.311-33.413 4.954-50.301c-3.358-16.887-11.652-32.4-23.825-44.576-12.177-12.175-27.691-20.467-44.578-23.826s-34.389-1.635-50.3 4.954c-15.906 6.589-29.504 17.748-39.070 32.065s-14.673 31.149-14.673 48.368c0 23.089 9.173 45.233 25.498 61.56 16.329 16.327 38.473 25.499 61.564 25.499zM280.974 360.461c-17.219 0-34.051 5.107-48.368 14.673s-25.475 23.164-32.064 39.070c-6.589 15.91-8.314 33.412-4.954 50.304 3.36 16.887 11.651 32.397 23.826 44.574s27.688 20.467 44.576 23.825c16.888 3.36 34.392 1.636 50.301-4.954 15.908-6.588 29.505-17.749 39.071-32.064 9.566-14.319 14.672-31.151 14.672-48.367 0-23.091-9.172-45.235-25.499-61.559-16.327-16.329-38.471-25.502-61.56-25.502zM768.047 86.485c-17.22 0-34.052 5.103-48.367 14.669-14.319 9.57-25.476 23.164-32.068 39.074-6.588 15.906-8.311 33.412-4.954 50.3 3.362 16.887 11.652 32.401 23.825 44.574 12.177 12.177 27.691 20.467 44.578 23.829 16.887 3.358 34.394 1.634 50.3-4.954 15.91-6.592 29.504-17.749 39.070-32.068 9.57-14.315 14.673-31.147 14.673-48.367 0-23.087-9.173-45.231-25.498-61.559-16.329-16.329-38.473-25.498-61.559-25.498z" />
<glyph unicode="&#xe93f;" glyph-name="sort" d="M253.297 738.147c-5.518 5.455-13.002 8.52-20.806 8.52s-15.287-3.065-20.806-8.52c-5.518-5.455-8.618-12.854-8.618-20.569v-511.537l-67.441 66.714c-5.525 5.461-13.018 8.533-20.832 8.533s-15.308-3.072-20.832-8.533c-5.525-5.461-8.629-12.868-8.629-20.595 0-7.723 3.104-15.13 8.629-20.595l117.696-116.352c2.733-2.709 5.98-4.86 9.555-6.323 3.575-1.468 7.407-2.223 11.277-2.223s7.702 0.755 11.277 2.223c3.575 1.463 6.822 3.614 9.555 6.323l117.696 116.352c2.74 2.705 4.914 5.914 6.397 9.446 1.484 3.537 2.247 7.326 2.247 11.149 0 3.827-0.763 7.616-2.247 11.149-1.483 3.537-3.657 6.746-6.397 9.446-2.733 2.709-5.98 4.86-9.555 6.327-3.575 1.463-7.407 2.219-11.277 2.219s-7.703-0.755-11.277-2.219c-3.575-1.468-6.822-3.618-9.555-6.327l-67.439-66.709v511.532c0 7.715-3.1 15.113-8.618 20.569zM476.501 330.906c-5.517-5.453-8.619-12.851-8.619-20.565 0-7.718 3.102-15.117 8.619-20.57 5.517-5.457 13.001-8.521 20.804-8.521h176.546c7.804 0 15.287 3.063 20.804 8.521 5.517 5.453 8.619 12.851 8.619 20.57 0 7.714-3.102 15.113-8.619 20.565-5.517 5.457-13.001 8.521-20.804 8.521h-176.546c-7.804 0-15.287-3.063-20.804-8.521zM476.501 505.438c-5.517-5.453-8.619-12.855-8.619-20.57s3.102-15.113 8.619-20.565c5.517-5.457 13.001-8.521 20.804-8.521h294.242c7.804 0 15.287 3.063 20.804 8.521 5.517 5.453 8.619 12.851 8.619 20.565s-3.102 15.117-8.619 20.57c-5.517 5.457-13.001 8.521-20.804 8.521h-294.242c-7.804 0-15.287-3.063-20.804-8.521zM476.501 679.97c-5.517-5.455-8.619-12.854-8.619-20.569s3.102-15.113 8.619-20.569c5.517-5.455 13.001-8.52 20.804-8.52h411.938c7.804 0 15.287 3.065 20.804 8.52s8.619 12.854 8.619 20.569c0 7.715-3.102 15.113-8.619 20.569s-13.001 8.52-20.804 8.52h-411.938c-7.804 0-15.287-3.064-20.804-8.52zM476.501 156.378c-5.517-5.457-8.619-12.855-8.619-20.57s3.102-15.113 8.619-20.57c5.517-5.457 13.001-8.521 20.804-8.521h58.85c7.804 0 15.287 3.063 20.804 8.521s8.619 12.855 8.619 20.57c0 7.714-3.102 15.113-8.619 20.57-5.517 5.453-13.001 8.516-20.804 8.516h-58.85c-7.804 0-15.287-3.063-20.804-8.516z" />
<glyph unicode="&#xe940;" glyph-name="source-link" d="M654.221 832c-23.565 0-42.667 19.103-42.667 42.667s19.102 42.667 42.667 42.667h284.446c23.565 0 42.667-19.103 42.667-42.667v-284.445c0-23.564-19.102-42.667-42.667-42.667s-42.667 19.103-42.667 42.667v181.438l-448.644-448.644c-16.661-16.666-43.678-16.666-60.34 0-16.662 16.661-16.662 43.678 0 60.339l448.646 448.644h-181.44zM180.148 689.778c-13.83 0-27.095-5.494-36.874-15.274s-15.274-23.044-15.274-36.875v-521.482c0-13.828 5.494-27.093 15.274-36.873s23.044-15.275 36.874-15.275h521.48c13.833 0 27.098 5.495 36.877 15.275s15.275 23.044 15.275 36.873v284.446c0 23.565 19.102 42.667 42.667 42.667s42.667-19.102 42.667-42.667v-284.446c0-36.463-14.485-71.433-40.269-97.212-25.783-25.783-60.753-40.269-97.216-40.269h-521.48c-36.462 0-71.431 14.485-97.214 40.269-25.783 25.779-40.268 60.749-40.268 97.212v521.482c0 36.463 14.484 71.432 40.268 97.214s60.752 40.268 97.214 40.268h284.445c23.565 0 42.667-19.103 42.667-42.667s-19.102-42.667-42.667-42.667h-284.445z" />
<glyph unicode="&#xe941;" glyph-name="star" d="M911.083 574.189l-255.812 38.932-114.355 242.77c-3.123 6.647-8.26 12.028-14.609 15.299-15.919 8.23-35.264 1.371-43.221-15.299l-114.356-242.77-255.813-38.932c-7.053-1.055-13.501-4.537-18.438-9.812-5.968-6.424-9.257-15.066-9.144-24.028s3.62-17.511 9.748-23.766l185.084-188.962-43.727-266.825c-1.025-6.208-0.369-12.591 1.894-18.428s6.042-10.893 10.909-14.596c4.867-3.699 10.627-5.901 16.627-6.349s12 0.875 17.32 3.814l228.811 125.978 228.813-125.978c6.246-3.482 13.5-4.642 20.45-3.375 17.532 3.166 29.321 20.574 26.295 38.933l-43.725 266.825 185.084 188.962c5.039 5.171 8.363 11.921 9.37 19.308 2.722 18.464-9.57 35.556-27.204 38.299z" />
<glyph unicode="&#xe942;" glyph-name="star-outlined" d="M911.087 546.541l-255.812 36.985-114.355 230.632c-3.123 6.315-8.265 11.426-14.609 14.534-15.919 7.818-35.264 1.303-43.226-14.534l-114.354-230.632-255.813-36.985c-7.053-1.002-13.501-4.31-18.438-9.321-5.969-6.101-9.257-14.314-9.144-22.826 0.113-8.516 3.619-16.636 9.748-22.579l185.084-179.511-43.727-253.487c-1.025-5.897-0.369-11.959 1.894-17.506 2.263-5.542 6.042-10.347 10.909-13.862s10.627-5.606 16.628-6.033c6-0.427 12 0.828 17.319 3.622l228.809 119.676 228.813-119.676c6.246-3.307 13.5-4.407 20.454-3.204 17.532 3.004 29.316 19.541 26.295 36.983l-43.729 253.487 185.084 179.511c5.039 4.911 8.363 11.328 9.374 18.342 2.718 17.54-9.574 33.778-27.204 36.384zM665.954 337.557l36.369-210.786-190.323 99.43-190.321-99.529 36.372 210.786-153.951 149.346 212.791 30.767 95.109 191.744 95.113-191.744 212.791-30.767-153.95-149.248z" />
<glyph unicode="&#xe943;" glyph-name="subtract" d="M85.333 490.667h853.333v-106.667h-853.333v106.667z" />
<glyph unicode="&#xe944;" glyph-name="time" d="M512 874.667c-235.264 0-426.667-191.403-426.667-426.667s191.403-426.667 426.667-426.667c235.264 0 426.667 191.403 426.667 426.667s-191.403 426.667-426.667 426.667zM512 106.667c-188.203 0-341.333 153.131-341.333 341.333s153.131 341.333 341.333 341.333c188.203 0 341.333-153.131 341.333-341.333s-153.131-341.333-341.333-341.333zM554.667 661.333h-85.333v-256h256v85.333h-170.667v170.667z" />
<glyph unicode="&#xe945;" glyph-name="transfer" d="M934.609 534.239c4.036 9.748 5.090 20.474 3.029 30.822-2.057 10.348-7.142 19.852-14.605 27.311l-266.662 266.663-75.413-75.412 175.625-175.624h-671.243v-106.665h799.99c10.547-0.004 20.855 3.123 29.628 8.977 8.772 5.858 15.612 14.187 19.652 23.928zM89.393 361.762c-4.038-9.749-5.093-20.476-3.033-30.822s7.143-19.853 14.606-27.311l266.663-266.662 75.413 75.413-175.625 175.625h671.246v106.662h-799.99c-10.549 0.009-20.864-3.11-29.636-8.969s-15.61-14.191-19.643-23.936z" />
<glyph unicode="&#xe946;" glyph-name="tree-view" d="M294.4 121.109v-29.214c0-8.469 3.215-16.627 8.993-22.673 5.785-6.050 13.673-9.489 21.94-9.489h106.667c8.269 0 16.154 3.439 21.939 9.489 5.781 6.046 8.994 14.204 8.994 22.673v111.59c0 8.469-3.213 16.631-8.994 22.677-5.786 6.050-13.67 9.489-21.939 9.489h-106.667c-8.268 0-16.156-3.439-21.94-9.489-5.778-6.046-8.993-14.208-8.993-22.677v-29.21h-103.467v225.805h103.467v-29.21c0-8.469 3.215-16.627 8.993-22.673 5.785-6.054 13.673-9.489 21.94-9.489h106.667c8.269 0 16.154 3.435 21.939 9.489 5.781 6.046 8.994 14.204 8.994 22.673v111.59c0 8.469-3.213 16.627-8.994 22.673-5.786 6.054-13.67 9.489-21.939 9.489h-106.667c-8.268 0-16.156-3.435-21.94-9.489-5.778-6.046-8.993-14.204-8.993-22.673v-29.21h-103.467v164.43h27.733c8.268 0 16.156 3.438 21.94 9.489 5.778 6.045 8.993 14.205 8.993 22.675v111.59c0 8.47-3.215 16.63-8.993 22.675-5.785 6.052-13.673 9.489-21.94 9.489h-106.667c-8.268 0-16.156-3.438-21.94-9.489-5.778-6.045-8.993-14.205-8.993-22.675v-111.59c0-8.47 3.215-16.629 8.993-22.675 5.785-6.051 13.673-9.489 21.94-9.489h27.733v-496.573h154.667zM298.667 737.805h-4.267v-64.328h617.6c8.269 0 16.154 3.438 21.939 9.489 5.781 6.045 8.994 14.205 8.994 22.675s-3.213 16.629-8.994 22.675c-5.786 6.052-13.67 9.489-21.939 9.489h-613.333zM512 458.829h-4.267v-64.324h404.267c8.269 0 16.154 3.435 21.939 9.489 5.781 6.042 8.994 14.204 8.994 22.673s-3.213 16.631-8.994 22.673c-5.786 6.054-13.67 9.489-21.939 9.489h-400zM512 179.857h-4.267v-64.329h404.267c8.269 0 16.154 3.439 21.939 9.489 5.781 6.046 8.994 14.204 8.994 22.673 0 8.474-3.213 16.631-8.994 22.677-5.786 6.050-13.67 9.489-21.939 9.489h-400zM401.067 171.324v-47.262h-44.8v47.262h44.8zM142.933 729.272h44.8v-47.261h-44.8v47.261zM401.067 403.038h-44.8v47.258h44.8v-47.258z" />
<glyph unicode="&#xe947;" glyph-name="upload" d="M426.656 362.667h170.665v256h128l-213.333 213.333-213.332-213.333h128v-256zM910.409 297.301c-8.96 9.557-68.736 73.515-85.803 90.197-11.959 11.465-27.891 17.856-44.459 17.835h-74.965l130.731-127.744h-151.211c-2.052 0.038-4.083-0.465-5.879-1.463-1.796-0.994-3.302-2.449-4.361-4.211l-34.816-79.915h-255.316l-34.816 79.915c-1.064 1.758-2.569 3.204-4.365 4.198-1.796 0.998-3.822 1.506-5.875 1.476h-151.211l130.688 127.744h-74.923c-16.939 0-33.109-6.784-44.459-17.835-17.067-16.725-76.843-80.683-85.803-90.197-20.864-22.229-32.341-39.936-26.88-61.824l23.936-131.157c5.461-21.931 29.483-39.936 53.419-39.936h695.977c23.936 0 47.957 18.005 53.419 39.936l23.936 131.157c5.376 21.888-6.059 39.595-26.965 61.824z" />
<glyph unicode="&#xe948;" glyph-name="user" d="M864.196 178.278c-20.335 47.902-49.847 91.409-86.886 128.107-36.928 36.8-80.674 66.142-128.823 86.404-0.431 0.218-0.862 0.324-1.293 0.538 67.162 48.239 110.818 126.822 110.818 215.477 0 146.868-119.659 265.863-267.345 265.863s-267.346-118.995-267.346-265.863c0-88.655 43.66-167.238 110.819-215.584-0.431-0.213-0.863-0.324-1.294-0.538-48.295-20.262-91.631-49.314-128.822-86.404-37.007-36.723-66.513-80.226-86.888-128.107-20.016-46.874-30.811-97.131-31.801-148.049-0.029-1.143 0.173-2.283 0.593-3.345 0.421-1.067 1.051-2.039 1.855-2.859s1.764-1.468 2.825-1.911c1.061-0.444 2.2-0.674 3.351-0.674h64.681c4.743 0 8.516 3.75 8.624 8.363 2.156 82.761 35.574 160.269 94.649 219.012 61.123 60.787 142.297 94.234 228.753 94.234s167.629-33.446 228.753-94.234c59.076-58.743 92.493-136.252 94.647-219.012 0.111-4.719 3.883-8.363 8.627-8.363h64.678c1.152 0 2.291 0.23 3.349 0.674 1.062 0.444 2.022 1.092 2.829 1.911 0.802 0.819 1.434 1.792 1.852 2.859 0.422 1.062 0.623 2.202 0.593 3.345-1.075 51.243-11.75 101.094-31.799 148.156zM490.667 424.414c-49.481 0-96.050 19.191-131.086 54.033s-54.332 81.151-54.332 130.357c0 49.206 19.296 95.518 54.332 130.359s81.605 54.030 131.086 54.030c49.481 0 96.051-19.189 131.085-54.030 35.038-34.841 54.332-81.152 54.332-130.359s-19.294-95.515-54.332-130.357c-35.034-34.842-81.604-54.033-131.085-54.033z" />
<glyph unicode="&#xe949;" glyph-name="view" d="M512 746.667c-266.667 0-426.667-298.667-426.667-298.667s160-298.667 426.667-298.667c266.667 0 426.667 298.667 426.667 298.667s-160 298.667-426.667 298.667zM643.994 313.609c-35.008-35.644-82.487-55.667-131.994-55.667s-96.986 20.023-131.993 55.667c-35.007 35.644-54.673 83.985-54.673 134.391s19.667 98.75 54.673 134.393c35.007 35.643 82.487 55.668 131.993 55.668s96.986-20.024 131.994-55.668c35.008-35.643 54.673-83.987 54.673-134.393s-19.665-98.748-54.673-134.391zM606.281 352.004c25.007 25.459 39.053 59.989 39.053 95.996s-14.046 70.537-39.053 95.995c-25.003 25.459-58.918 39.762-94.281 39.762s-69.278-14.303-94.281-39.762c-25.005-25.459-39.052-59.989-39.052-95.995s14.048-70.537 39.052-95.996c25.003-25.459 58.919-39.761 94.281-39.761s69.278 14.302 94.281 39.761z" />
</font>
</defs>
</svg>
